<svg id="eRcdT8np95r1" xmlns="http://www.w3.org/2000/svg" xmlns:xlink="http://www.w3.org/1999/xlink" viewBox="0 0 300 300" shape-rendering="geometricPrecision" text-rendering="geometricPrecision" project-id="83a9fd85b6ad48ee882cc75189bf4ff1" export-id="7af2d8ac2f564d91ad1c23500ff4e5bc" cached="false"><defs><linearGradient id="eRcdT8np95r2-fill" x1="0.47228" y1="0.936879" x2="0.47228" y2="0.031096" spreadMethod="pad" gradientUnits="objectBoundingBox" gradientTransform="translate(0 0)"><stop id="eRcdT8np95r2-fill-0" offset="0%" stop-color="#386fdd"/><stop id="eRcdT8np95r2-fill-1" offset="100%" stop-color="#9cb1b6"/></linearGradient></defs><rect width="216.951772" height="219.066312" rx="25" ry="25" transform="matrix(1.192837 0 0 1.22337 16.777357 16.000423)" fill="url(#eRcdT8np95r2-fill)" stroke-width="0"/><path d="M56.230049,248.719039q188.32619,5.139506,179.882716-35.609436c-8.443474-40.748942-176.21164,16.152733-176.21164-30.837038q0-46.989771,110.604923-45.731717" transform="matrix(1 0 0 1.323311 -6.607937 -105.188995)" paint-order="markers fill stroke" fill="none" stroke="#fff" stroke-width="7" stroke-miterlimit="5" stroke-dasharray="25,10"/><polygon points="0,-30 25.980762,15 -25.980762,15 0,-30" transform="matrix(0.081403 0.422037 -0.617694 0.119142 166.625786 73.973665)" fill="#fff" stroke-width="0"/><g transform="translate(5.245468 -27.759399)"><path d="M177.79622,150v-5.90662h9.46303v-55.64097c-.54897-12.83267,3.65195-19.24901,12.60276-19.24901c13.42621,0,17.50006,0,29.2475,0s11.38033,7.77188,11.38033,19.24901c0,7.65142,0,26.19841,0,55.64097h7.37037v5.90662h-70.06399Zm51.16703-52.21472c2.20914,0,4-1.79086,4-4v-9.61703c0-2.20914-1.79086-4-4-4h-29.75443c-2.20914,0-4,1.79086-4,4v9.61703c0,2.20914,1.79086,4,4,4h29.75443Z" transform="translate(0 -0.226911)" fill="#fff" stroke-width="0" stroke-opacity="0"/><path d="M240.48984,109.6017q7.37037-3.732374,7.37037,8.440355c0,12.172729-.823064,26.051324,4.502505,26.051324s6.580353-1.433189,6.947249-5.285598-6.947249-22.272904-6.947249-29.206082s3.414075-12.898277,3.414075-15.550467q0-2.65219-10.939464-10.964846" transform="translate(-2.039692 -3.145053)" fill="none" stroke="#fbfcfd" stroke-width="4"/><path d="M245.820518,84.16825c0,1.603468-2.039692,4.31265,0,6.96484q2.039692,2.65219,4.502504,6.65219" transform="translate(1.925651 1.376557)" fill="none" stroke="#fff" stroke-width="2"/></g><path d="" fill="none" stroke="#3f5787" stroke-width="0.6"/></svg>
